[Header]
FileType HTR
DataType HTRS
FileVersion 1
NumSegments 64
NumFrames 4
DataFrameRate 24
EulerRotationOrder ZYX
CalibrationUnits mm
RotationUnits Degrees
GlobalAxisofGravity Y
BoneLengthAxis Y
ScaleFactor 1.0
[SegmentNames&Hierarchy]
Hips	GLOBAL
Spine	Hips
Spine1	Spine
Spine2	Spine1
Neck	Spine2
Head	Neck
LeftEye	Head
RightEye	Head
LeftShoulder	Spine2
LeftArm	LeftShoulder
LeftForeArm	LeftArm
LeftHand	LeftForeArm
LeftHandThumb1	LeftHand
LeftHandThumb2	LeftHandThumb1
LeftHandThumb3	LeftHandThumb2
LeftHandThumb4	LeftHandThumb3
LeftHandIndex1	LeftHand
LeftHandIndex2	LeftHandIndex1
LeftHandIndex3	LeftHandIndex2
LeftHandIndex4	LeftHandIndex3
LeftHandMiddle1	LeftHand
LeftHandMiddle2	LeftHandMiddle1
LeftHandMiddle3	LeftHandMiddle2
LeftHandMiddle4	LeftHandMiddle3
LeftHandRing1	LeftHand
LeftHandRing2	LeftHandRing1
LeftHandRing3	LeftHandRing2
LeftHandRing4	LeftHandRing3
LeftHandPinky1	LeftHand
LeftHandPinky2	LeftHandPinky1
LeftHandPinky3	LeftHandPinky2
LeftHandPinky4	LeftHandPinky3
RightShoulder	Spine2
RightArm	RightShoulder
RightForeArm	RightArm
RightHand	RightForeArm
RightHandPinky1	RightHand
RightHandPinky2	RightHandPinky1
RightHandPinky3	RightHandPinky2
RightHandPinky4	RightHandPinky3
RightHandRing1	RightHand
RightHandRing2	RightHandRing1
RightHandRing3	RightHandRing2
RightHandRing4	RightHandRing3
RightHandMiddle1	RightHand
RightHandMiddle2	RightHandMiddle1
RightHandMiddle3	RightHandMiddle2
RightHandMiddle4	RightHandMiddle3
RightHandIndex1	RightHand
RightHandIndex2	RightHandIndex1
RightHandIndex3	RightHandIndex2
RightHandIndex4	RightHandIndex3
RightHandThumb1	RightHand
RightHandThumb2	RightHandThumb1
RightHandThumb3	RightHandThumb2
RightHandThumb4	RightHandThumb3
LeftUpLeg	Hips
LeftLeg	LeftUpLeg
LeftFoot	LeftLeg
LeftToeBase	LeftFoot
RightUpLeg	Hips
RightLeg	RightUpLeg
RightFoot	RightLeg
RightToeBase	RightFoot
[BasePosition]
Hips	0	0	0	0	0	0	1
Spine	0	0	0	0	0	0	1
Spine1	0	0	0	0	0	0	1
Spine2	0	0	0	0	0	0	1
Neck	0	0	0	0	0	0	1
Head	0	0	0	0	0	0	1
LeftEye	0	0	0	0	0	0	1
RightEye	0	0	0	0	0	0	1
LeftShoulder	0	0	0	0	0	0	1
LeftArm	0	0	0	0	0	0	1
LeftForeArm	0	0	0	0	0	0	1
LeftHand	0	0	0	0	0	0	1
LeftHandThumb1	0	0	0	0	0	0	1
LeftHandThumb2	0	0	0	0	0	0	1
LeftHandThumb3	0	0	0	0	0	0	1
LeftHandThumb4	0	0	0	0	0	0	1
LeftHandIndex1	0	0	0	0	0	0	1
LeftHandIndex2	0	0	0	0	0	0	1
LeftHandIndex3	0	0	0	0	0	0	1
LeftHandIndex4	0	0	0	0	0	0	1
LeftHandMiddle1	0	0	0	0	0	0	1
LeftHandMiddle2	0	0	0	0	0	0	1
LeftHandMiddle3	0	0	0	0	0	0	1
LeftHandMiddle4	0	0	0	0	0	0	1
LeftHandRing1	0	0	0	0	0	0	1
LeftHandRing2	0	0	0	0	0	0	1
LeftHandRing3	0	0	0	0	0	0	1
LeftHandRing4	0	0	0	0	0	0	1
LeftHandPinky1	0	0	0	0	0	0	1
LeftHandPinky2	0	0	0	0	0	0	1
LeftHandPinky3	0	0	0	0	0	0	1
LeftHandPinky4	0	0	0	0	0	0	1
RightShoulder	0	0	0	0	0	0	1
RightArm	0	0	0	0	0	0	1
RightForeArm	0	0	0	0	0	0	1
RightHand	0	0	0	0	0	0	1
RightHandPinky1	0	0	0	0	0	0	1
RightHandPinky2	0	0	0	0	0	0	1
RightHandPinky3	0	0	0	0	0	0	1
RightHandPinky4	0	0	0	0	0	0	1
RightHandRing1	0	0	0	0	0	0	1
RightHandRing2	0	0	0	0	0	0	1
RightHandRing3	0	0	0	0	0	0	1
RightHandRing4	0	0	0	0	0	0	1
RightHandMiddle1	0	0	0	0	0	0	1
RightHandMiddle2	0	0	0	0	0	0	1
RightHandMiddle3	0	0	0	0	0	0	1
RightHandMiddle4	0	0	0	0	0	0	1
RightHandIndex1	0	0	0	0	0	0	1
RightHandIndex2	0	0	0	0	0	0	1
RightHandIndex3	0	0	0	0	0	0	1
RightHandIndex4	0	0	0	0	0	0	1
RightHandThumb1	0	0	0	0	0	0	1
RightHandThumb2	0	0	0	0	0	0	1
RightHandThumb3	0	0	0	0	0	0	1
RightHandThumb4	0	0	0	0	0	0	1
LeftUpLeg	0	0	0	0	0	0	1
LeftLeg	0	0	0	0	0	0	1
LeftFoot	0	0	0	0	0	0	1
LeftToeBase	0	0	0	0	0	0	1
RightUpLeg	0	0	0	0	0	0	1
RightLeg	0	0	0	0	0	0	1
RightFoot	0	0	0	0	0	0	1
RightToeBase	0	0	0	0	0	0	1
[Hips]
14	2483.776611	949.1030884	-8.612092972	7.009800911	74.38179016	-10.46028328	1.0
15	2668.385742	940.7382202	-3.923804283	1.58769238	73.87559509	-15.18762684	1.0
16	2837.555908	911.8283081	-0.674610436	-3.378697872	73.78959656	-22.56540298	1.0
17	3025.780029	907.8704834	5.880270958	-3.070046425	72.44566345	-22.85241318	1.0
[Spine]
14	0	101.8159943	1.315000057	6.279313564	-18.30068779	5.368525505	1.0
15	0	101.8159943	1.315000057	6.936457157	-14.31250572	6.006061554	1.0
16	0	101.8159943	1.315000057	7.672936916	-10.16017532	6.892311096	1.0
17	0	101.8159943	1.315000057	8.518267632	-8.236796379	6.16465807	1.0
[Spine1]
14	0	100.8349991	-10.00800037	2.307875872	-7.292035103	2.72296834	1.0
15	0	100.8349991	-10.00800037	2.599781513	-6.001534462	2.699492931	1.0
16	0	100.8349991	-10.00800037	2.927574873	-4.270668983	2.621401072	1.0
17	0	100.8349991	-10.00800037	3.250170946	-3.416393995	2.270705938	1.0
[Spine2]
14	0	91	-13.73399925	2.283050537	-7.245534897	2.866912127	1.0
15	0	91	-13.73399925	2.579101086	-5.964231491	2.807431936	1.0
16	0	91	-13.73399925	2.903412819	-4.248762608	2.683986425	1.0
17	0	91	-13.73399925	3.229236364	-3.401178122	2.32138443	1.0
[Neck]
14	0	166.7169952	-25.16200066	1.063579679	-3.564194441	-4.22253418	1.0
15	0	166.7169952	-25.16200066	-0.0636073947	-5.133851528	-3.521673918	1.0
16	0	166.7169952	-25.16200066	-0.952571094	-6.729028225	-2.102833271	1.0
17	0	166.7169952	-25.16200066	-0.8665830493	-6.886348248	-2.175762653	1.0
[Head]
14	0	96.17900085	16.84999847	-24.75819206	-32.00534439	27.61389542	1.0
15	0	96.17900085	16.84999847	-28.42054176	-35.29150772	29.5648632	1.0
16	0	96.17900085	16.84999847	-34.08502579	-37.03762054	33.64796829	1.0
17	0	96.17900085	16.84999847	-36.64997864	-35.72484207	36.32310867	1.0
[LeftEye]
14	30.6760006	64.09500122	92.83599854	0	0	0	1.0
15	30.6760006	64.09500122	92.83599854	0	0	0	1.0
16	30.6760006	64.09500122	92.83599854	0	0	0	1.0
17	30.6760006	64.09500122	92.83599854	0	0	0	1.0
[RightEye]
14	-30.6760006	64.09500122	92.83499908	0	0	0	1.0
15	-30.6760006	64.09500122	92.83499908	0	0	0	1.0
16	-30.6760006	64.09500122	92.83499908	0	0	0	1.0
17	-30.6760006	64.09500122	92.83499908	0	0	0	1.0
[LeftShoulder]
14	45.70400238	109.4599991	-26.28000069	2.885483027	-12.94218922	-10.03004932	1.0
15	45.70400238	109.4599991	-26.28000069	3.178946018	-13.64510345	-11.05288982	1.0
16	45.70400238	109.4599991	-26.28000069	3.317265272	-13.86944485	-11.66880417	1.0
17	45.70400238	109.4599991	-26.28000069	2.901856422	-11.63391304	-12.05868721	1.0
[LeftArm]
14	105.923996	-5.24600029	-22.32099915	-28.08906364	12.98818874	-40.53367615	1.0
15	105.923996	-5.24600029	-22.32099915	-10.55979347	14.59816456	-43.50073242	1.0
16	105.923996	-5.24600029	-22.32099915	2.618775845	18.0868988	-49.7347641	1.0
17	105.923996	-5.24600029	-22.32099915	3.46912384	25.05105972	-56.95522308	1.0
[LeftForeArm]
14	278.414978	-0.0009999999311	0	8.052002641e-12	-140.8053894	-0.0002136230469	1.0
15	278.414978	-0.0009999999311	0	-1.525879452e-05	-131.6470337	-0.0002136230469	1.0
16	278.414978	-0.0009999999311	0	-3.051757813e-05	-111.9007797	-0.0002136230469	1.0
17	278.414978	-0.0009999999311	0	-6.175469025e-06	-88.1087265	-7.981184899e-05	1.0
[LeftHand]
14	283.2879944	0	0	50.07680511	0.9964254498	7.235140324	1.0
15	283.2879944	0	0	57.21787262	9.160033226	18.00521278	1.0
16	283.2879944	0	0	54.6480751	7.183354855	30.46910286	1.0
17	283.2879944	0	0	43.14763641	-4.054679871	32.76640701	1.0
[LeftHandThumb1]
14	24.6609993	-15.75	26.8239994	-0.3115881383	2.46508193	-2.817601681	1.0
15	24.6609993	-15.75	26.8239994	-2.169877768	-2.300481558	-4.437318802	1.0
16	24.6609993	-15.75	26.8239994	-4.215214729	-7.947880268	-6.118284702	1.0
17	24.6609993	-15.75	26.8239994	-5.302073956	-11.16394043	-7.00039053	1.0
[LeftHandThumb2]
14	32.29800034	-18.64699936	18.64699936	8.064144135	16.22566414	18.31681442	1.0
15	32.29800034	-18.64699936	18.64699936	7.002675533	11.62608719	17.05570984	1.0
16	32.29800034	-18.64699936	18.64699936	5.904380798	6.205458641	15.70583534	1.0
17	32.29800034	-18.64699936	18.64699936	5.344493866	3.132201195	14.99418831	1.0
[LeftHandThumb3]
14	26.52600098	-15.31499958	15.31499958	-28.07745171	-20.63553238	21.7353344	1.0
15	26.52600098	-15.31499958	15.31499958	-29.65738678	-23.74461555	22.52707481	1.0
16	26.52600098	-15.31499958	15.31499958	-31.62479973	-27.36275864	23.6047039	1.0
17	26.52600098	-15.31499958	15.31499958	-32.80041885	-29.391222	24.29259682	1.0
[LeftHandThumb4]
14	19.54599953	-11.28499985	11.28499985	0	0	0	1.0
15	19.54599953	-11.28499985	11.28499985	0	0	0	1.0
16	19.54599953	-11.28499985	11.28499985	0	0	0	1.0
17	19.54599953	-11.28499985	11.28499985	0	0	0	1.0
[LeftHandIndex1]
14	91.09299469	-5.170999527	22.60099792	-2.080688477	-2.698351145	-32.43619919	1.0
15	91.09299469	-5.170999527	22.60099792	-1.642957449	-2.841765881	-27.65763092	1.0
16	91.09299469	-5.170999527	22.60099792	-1.160995722	-3.003696442	-22.05133247	1.0
17	91.09299469	-5.170999527	22.60099792	-0.9016557336	-3.079658747	-18.88291931	1.0
[LeftHandIndex2]
14	36.76399994	0	0	-0.3081693053	1.872481346	-18.69024277	1.0
15	36.76399994	0	0	-0.1682049036	1.391995072	-13.77933788	1.0
16	36.76399994	0	0	-0.05719661713	0.8156973124	-8.022159576	1.0
17	36.76399994	0	0	-0.02024675161	0.4860725403	-4.770065784	1.0
[LeftHandIndex3]
14	28.83100128	0	0	-0.002788658254	0.1804879755	-1.769333601	1.0
15	28.83100128	0	0	-0.00837950781	-0.3128506839	3.06788826	1.0
16	28.83100128	0	0	-0.06790201366	-0.8883200288	8.741786003	1.0
17	28.83100128	0	0	-0.1266269237	-1.209985018	11.94835567	1.0
[LeftHandIndex4]
14	23.92700005	0	0	0	0	0	1.0
15	23.92700005	0	0	0	0	0	1.0
16	23.92700005	0	0	0	0	0	1.0
17	23.92700005	0	0	0	0	0	1.0
[LeftHandMiddle1]
14	95.33399963	0	0	-2.950766802	-0.7327280641	-41.41853333	1.0
15	95.33399963	0	0	-2.403002501	-0.8105326295	-35.74121094	1.0
16	95.33399963	0	0	-1.805015564	-0.9124209881	-29.08070946	1.0
17	95.33399963	0	0	-1.489984035	-0.9602566361	-25.31641579	1.0
[LeftHandMiddle2]
14	36.98199844	0	0	-1.487059355	3.891331911	-41.81577301	1.0
15	36.98199844	0	0	-1.117905259	3.435247898	-36.04296875	1.0
16	36.98199844	0	0	-0.7463585138	2.856529236	-29.28059769	1.0
17	36.98199844	0	0	-0.5675561428	2.511544466	-25.46374321	1.0
[LeftHandMiddle3]
14	29.50900078	0	0	-0.004351077136	-0.2257276326	2.213217974	1.0
15	29.50900078	0	0	-0.03987560421	-0.6815151572	6.6957407	1.0
16	29.50900078	0	0	-0.1267519444	-1.210553885	11.95408344	1.0
17	29.50900078	0	0	-0.197192654	-1.505252123	14.92600727	1.0
[LeftHandMiddle4]
14	28.3390007	0	0	0	0	0	1.0
15	28.3390007	0	0	0	0	0	1.0
16	28.3390007	0	0	0	0	0	1.0
17	28.3390007	0	0	0	0	0	1.0
[LeftHandRing1]
14	91.04499817	-0.4390000105	-18.65100098	-3.170078039	3.323103428	-43.46657562	1.0
15	91.04499817	-0.4390000105	-18.65100098	-2.469178438	3.029663324	-36.26729202	1.0
16	91.04499817	-0.4390000105	-18.65100098	-1.715900898	2.612050056	-27.82930756	1.0
17	91.04499817	-0.4390000105	-18.65100098	-1.328216195	2.352846861	-23.06398201	1.0
[LeftHandRing2]
14	31.54000092	0	0	-3.023000479	5.108973503	-61.204422	1.0
15	31.54000092	0	0	-2.403075457	4.716852665	-53.97538757	1.0
16	31.54000092	0	0	-1.746479511	4.162495136	-45.50860596	1.0
17	31.54000092	0	0	-1.414196968	3.808506012	-40.73065567	1.0
[LeftHandRing3]
14	29.37700081	0	0	-0.06402654201	0.8627818227	-8.488648415	1.0
15	29.37700081	0	0	-0.001553618	0.1347019225	-1.320567727	1.0
16	29.37700081	0	0	-0.04464402422	-0.721044004	7.086028099	1.0
17	29.37700081	0	0	-0.124289766	-1.198882461	11.83706474	1.0
[LeftHandRing4]
14	26.47500038	0	0	0	0	0	1.0
15	26.47500038	0	0	0	0	0	1.0
16	26.47500038	0	0	0	0	0	1.0
17	26.47500038	0	0	0	0	0	1.0
[LeftHandPinky1]
14	80.77799988	-4.887000084	-38.06099701	-4.801609516	4.686818123	-54.68402863	1.0
15	80.77799988	-4.887000084	-38.06099701	-3.973593235	4.437774181	-44.36339569	1.0
16	80.77799988	-4.887000084	-38.06099701	-3.089655161	3.946281433	-32.27164078	1.0
17	80.77799988	-4.887000084	-38.06099701	-2.641813993	3.593383789	-25.4466362	1.0
[LeftHandPinky2]
14	36	0	0	-4.67869997	5.711645126	-78.62992859	1.0
15	36	0	0	-3.674046278	5.41475296	-68.29464722	1.0
16	36	0	0	-2.587688446	4.845262051	-56.19006348	1.0
17	36	0	0	-2.035085917	4.426809311	-49.36114883	1.0
[LeftHandPinky3]
14	21.14200211	0	0	-0.6773715019	2.730006933	-27.86511993	1.0
15	21.14200211	0	0	-0.2739019394	1.768004894	-17.61141014	1.0
16	21.14200211	0	0	-0.02789049223	0.570278883	-5.598912239	1.0
17	21.14200211	0	0	-0.001252149581	-0.1209303141	1.185446978	1.0
[LeftHandPinky4]
14	19.75699997	0	0	0	0	0	1.0
15	19.75699997	0	0	0	0	0	1.0
16	19.75699997	0	0	0	0	0	1.0
17	19.75699997	0	0	0	0	0	1.0
[RightShoulder]
14	-45.70000076	109.4620056	-26.28000069	-1.148773551	-9.385895729	-2.799707651	1.0
15	-45.70000076	109.4620056	-26.28000069	-0.8982821107	-6.741882801	3.516911268	1.0
16	-45.70000076	109.4620056	-26.28000069	0.1200123355	-2.335340023	12.10771465	1.0
17	-45.70000076	109.4620056	-26.28000069	1.986355901	4.733211994	17.48244476	1.0
[RightArm]
14	-105.9280014	-5.248000145	-22.32099915	10.81756496	-38.38519669	53.84098434	1.0
15	-105.9280014	-5.248000145	-22.32099915	8.120199203	-33.31749344	53.80873871	1.0
16	-105.9280014	-5.248000145	-22.32099915	6.756583691	-22.01988602	48.79615784	1.0
17	-105.9280014	-5.248000145	-22.32099915	8.521220207	-6.519081593	40.47579575	1.0
[RightForeArm]
14	-278.414978	0	0	-9.339372582e-07	60.58845139	-5.570580925e-06	1.0
15	-278.414978	0	0	-5.736351795e-06	62.92290115	-2.238375828e-06	1.0
16	-278.414978	0	0	-2.167441562e-05	64.17131042	-8.261046787e-06	1.0
17	-278.414978	0	0	-2.579638021e-05	62.629776	-1.683105984e-05	1.0
[RightHand]
14	-283.2879944	0	0.0009999999311	35.44140625	14.81476307	-1.310416937	1.0
15	-283.2879944	0	0.0009999999311	34.71931458	9.562923431	1.73696506	1.0
16	-283.2879944	0	0.0009999999311	34.39606476	3.331622839	11.0996151	1.0
17	-283.2879944	0	0.0009999999311	29.40931511	2.900375605	19.49068451	1.0
[RightHandPinky1]
14	-80.76699829	-4.885000229	-38.06000137	-4.246622562	-9.187439919	54.9000473	1.0
15	-80.76699829	-4.885000229	-38.06000137	-4.780629158	-6.391931534	63.37558746	1.0
16	-80.76699829	-4.885000229	-38.06000137	-5.133043289	-4.474094868	68.87375641	1.0
17	-80.76699829	-4.885000229	-38.06000137	-5.280701637	-3.617112398	71.23773956	1.0
[RightHandPinky2]
14	-36	0	0.0009999999311	-3.79473567	-4.554643154	79.60979462	1.0
15	-36	0	0.0009999999311	-4.471590996	-4.627806664	88.05068207	1.0
16	-36	0	0.0009999999311	-4.915801048	-4.621758938	93.55548859	1.0
17	-36	0	0.0009999999311	-5.106800079	-4.60600853	95.92985535	1.0
[RightHandPinky3]
14	-21.14200211	0	0	-0.6362150908	-2.344409704	30.36281776	1.0
15	-21.14200211	0	0	-0.9833595157	-2.854990244	38.00474167	1.0
16	-21.14200211	0	0	-1.244432449	-3.160342216	42.97722244	1.0
17	-21.14200211	0	0	-1.364772201	-3.284560442	45.11777878	1.0
[RightHandPinky4]
14	-19.75699997	0	0	0	0	0	1.0
15	-19.75699997	0	0	0	0	0	1.0
16	-19.75699997	0	0	0	0	0	1.0
17	-19.75699997	0	0	0	0	0	1.0
[RightHandRing1]
14	-91.03599548	-0.4390000105	-18.65100098	-2.90826726	-4.99057436	44.65383911	1.0
15	-91.03599548	-0.4390000105	-18.65100098	-3.550629616	-3.825696468	52.06487274	1.0
16	-91.03599548	-0.4390000105	-18.65100098	-3.983867884	-3.018679857	56.90304947	1.0
17	-91.03599548	-0.4390000105	-18.65100098	-4.171578884	-2.656706333	58.99274063	1.0
[RightHandRing2]
14	-31.54000092	0	0	-2.552571297	-4.139023304	63.31157684	1.0
15	-31.54000092	0	0	-3.099274635	-4.370551586	70.67017365	1.0
16	-31.54000092	0	0	-3.471158266	-4.483346462	75.48513031	1.0
17	-31.54000092	0	0	-3.634634018	-4.522398949	77.56738281	1.0
[RightHandRing3]
14	-29.37700081	0	0	-0.1752637178	-1.263202071	15.79790974	1.0
15	-29.37700081	0	0	-0.2922026217	-1.620425224	20.44300079	1.0
16	-29.37700081	0	0	-0.3826530278	-1.84488368	23.43379593	1.0
17	-29.37700081	0	0	-0.4248262942	-1.939241648	24.710989	1.0
[RightHandRing4]
14	-26.47500038	0	0	0	0	0	1.0
15	-26.47500038	0	0	0	0	0	1.0
16	-26.47500038	0	0	0	0	0	1.0
17	-26.47500038	0	0	0	0	0	1.0
[RightHandMiddle1]
14	-95.32500458	0	0	-2.763439655	0.983032465	43.10105896	1.0
15	-95.32500458	0	0	-3.350467682	1.247692108	49.88428879	1.0
16	-95.32500458	0	0	-3.746767759	1.413889647	54.32624817	1.0
17	-95.32500458	0	0	-3.919973135	1.483599782	56.24913788	1.0
[RightHandMiddle2]
14	-36.98199844	0	0	-1.32832408	-3.247909784	44.47802353	1.0
15	-36.98199844	0	0	-1.741745114	-3.620472908	51.37135696	1.0
16	-36.98199844	0	0	-2.035764933	-3.836531401	55.89047241	1.0
17	-36.98199844	0	0	-2.168191671	-3.922775984	57.84752655	1.0
[RightHandMiddle3]
14	-29.50900078	0	0	-0.02642889507	-0.4966009855	6.118083954	1.0
15	-29.50900078	0	0	-0.06703405082	-0.7879040837	9.75053215	1.0
16	-29.50900078	0	0	-0.1033354625	-0.9758301377	12.11422443	1.0
17	-29.50900078	0	0	-0.1213365272	-1.056208253	13.13171005	1.0
[RightHandMiddle4]
14	-28.3390007	0	0.0009999999311	0	0	0	1.0
15	-28.3390007	0	0.0009999999311	0	0	0	1.0
16	-28.3390007	0	0.0009999999311	0	0	0	1.0
17	-28.3390007	0	0.0009999999311	0	0	0	1.0
[RightHandIndex1]
14	-91.08300018	-5.167999744	22.60099792	-2.03734374	3.844636917	34.48575974	1.0
15	-91.08300018	-5.167999744	22.60099792	-2.563129902	3.505293608	40.87796021	1.0
16	-91.08300018	-5.167999744	22.60099792	-2.921725273	3.257122755	45.0650177	1.0
17	-91.08300018	-5.167999744	22.60099792	-3.080054283	3.141970634	46.87804413	1.0
[RightHandIndex2]
14	-36.76399994	0	0	-0.4842445254	-2.063426733	26.41259766	1.0
15	-36.76399994	0	0	-0.6462166309	-2.361348152	30.60606194	1.0
16	-36.76399994	0	0	-0.7624468207	-2.54747653	33.31983185	1.0
17	-36.76399994	0	0	-0.8149243593	-2.625468731	34.48255539	1.0
[RightHandIndex3]
14	-28.83100128	0	0	-0.06965629756	-0.80094558	9.939446449	1.0
15	-28.83100128	0	0	-0.1327689588	-1.10202229	13.73900318	1.0
16	-28.83100128	0	0	-0.1839700788	-1.293525338	16.18804169	1.0
17	-28.83100128	0	0	-0.2083370686	-1.374697089	17.23458099	1.0
[RightHandIndex4]
14	-23.92700005	0	0	0	0	0	1.0
15	-23.92700005	0	0	0	0	0	1.0
16	-23.92700005	0	0	0	0	0	1.0
17	-23.92700005	0	0	0	0	0	1.0
[RightHandThumb1]
14	-24.64799881	-15.72700024	26.82600021	-2.096237183	1.307773232	3.960325241	1.0
15	-24.64799881	-15.72700024	26.82600021	-1.4678334	-0.3801662922	3.437456846	1.0
16	-24.64799881	-15.72700024	26.82600021	-1.057405472	-1.457783699	3.092600584	1.0
17	-24.64799881	-15.72700024	26.82600021	-0.8809013367	-1.914757133	2.943974733	1.0
[RightHandThumb2]
14	-32.29800034	-18.64699936	18.64699936	8.837013245	-16.20319366	-19.06998444	1.0
15	-32.29800034	-18.64699936	18.64699936	9.233456612	-17.80833626	-19.54147148	1.0
16	-32.29800034	-18.64699936	18.64699936	9.496535301	-18.83434486	-19.85177803	1.0
17	-32.29800034	-18.64699936	18.64699936	9.610536575	-19.26974297	-19.98568344	1.0
[RightHandThumb3]
14	-26.52600098	-15.31399918	15.31399918	-25.0373497	16.21650314	-21.39648628	1.0
15	-26.52600098	-15.31399918	15.31399918	-24.52771187	15.11925697	-21.17613029	1.0
16	-26.52600098	-15.31399918	15.31399918	-24.20505142	14.41581249	-21.04094505	1.0
17	-26.52600098	-15.31399918	15.31399918	-24.06882858	14.11675549	-20.98486328	1.0
[RightHandThumb4]
14	-19.54599953	-11.28499985	11.28499985	0	0	0	1.0
15	-19.54599953	-11.28499985	11.28499985	0	0	0	1.0
16	-19.54599953	-11.28499985	11.28499985	0	0	0	1.0
17	-19.54599953	-11.28499985	11.28499985	0	0	0	1.0
[LeftUpLeg]
14	82.07800293	-67.51699829	-15.99599934	12.39642429	26.09033966	-1.85063386	1.0
15	82.07800293	-67.51699829	-15.99599934	1.366157889	28.53686714	1.746753335	1.0
16	82.07800293	-67.51699829	-15.99599934	-19.09600067	27.21841812	-0.8875656724	1.0
17	82.07800293	-67.51699829	-15.99599934	-39.29244614	23.22169685	-4.461231709	1.0
[LeftLeg]
14	0	-443.7049866	2.845999956	54.52719116	-1.625358701	-2.858206034	1.0
15	0	-443.7049866	2.845999956	82.91518402	2.118581772	1.926998019	1.0
16	0	-443.7049866	2.845999956	106.5280533	-0.9883581996	6.309199333	1.0
17	0	-443.7049866	2.845999956	115.5298157	-0.8046191335	2.996940136	1.0
[LeftFoot]
14	0	-444.2789917	-29.8219986	11.55995178	-0.1344493777	-6.604431152	1.0
15	0	-444.2789917	-29.8219986	10.22379208	11.30466652	5.253082752	1.0
16	0	-444.2789917	-29.8219986	3.370084047	11.04881859	17.49859619	1.0
17	0	-444.2789917	-29.8219986	-2.582612753	1.753481746	7.1352911	1.0
[LeftToeBase]
14	0	-87.28699493	107.1060028	-8.394170761	1.342585983e-05	-3.029176241e-06	1.0
15	0	-87.28699493	107.1060028	-9.079285622	9.494928236e-06	-2.216715984e-05	1.0
16	0	-87.28699493	107.1060028	-10.20720482	-7.827042282e-06	9.878011952e-06	1.0
17	0	-87.28699493	107.1060028	-9.651361465	1.698744381e-05	1.726883784e-05	1.0
[RightUpLeg]
14	-82.07800293	-67.51699829	-15.99599934	-54.75609207	5.498500824	11.10286808	1.0
15	-82.07800293	-67.51699829	-15.99599934	-46.60683823	0.2150666416	13.31821251	1.0
16	-82.07800293	-67.51699829	-15.99599934	-54.49372101	0.7734002471	12.42129898	1.0
17	-82.07800293	-67.51699829	-15.99599934	-45.12119293	0.5364248157	10.84836197	1.0
[RightLeg]
14	0	-443.7049866	2.861999989	14.32730579	5.966673374	5.70486021	1.0
15	0	-443.7049866	2.861999989	16.17045784	7.183790207	9.954683304	1.0
16	0	-443.7049866	2.861999989	47.6156311	1.652878284	11.07621479	1.0
17	0	-443.7049866	2.861999989	54.22791672	2.550373316	8.907011032	1.0
[RightFoot]
14	0	-444.2770081	-29.83799934	2.114703655	2.2144835	13.14036274	1.0
15	0	-444.2770081	-29.83799934	16.4913559	1.39367938	-13.55700684	1.0
16	0	-444.2770081	-29.83799934	-9.582082748	-2.374890089	-13.55319977	1.0
17	0	-444.2770081	-29.83799934	-26.34818077	-2.28208065	-10.61793232	1.0
[RightToeBase]
14	0	-87.28699493	107.1060028	-8.416348457	-2.670806498e-05	3.449308679e-07	1.0
15	0	-87.28699493	107.1060028	-9.347802162	-2.930212031e-05	9.006579603e-06	1.0
16	0	-87.28699493	107.1060028	-9.347799301	9.607511856e-06	1.750642355e-06	1.0
17	0	-87.28699493	107.1060028	-9.347805023	1.247914679e-05	-7.698827176e-06	1.0
[EndOfFile]
